<?xml version="1.0" encoding="utf-8"?>
<!-- Generator: Adobe Illustrator 15.1.0, SVG Export Plug-In . SVG Version: 6.00 Build 0)  -->
<!DOCTYPE svg PUBLIC "-//W3C//DTD SVG 1.1//EN" "http://www.w3.org/Graphics/SVG/1.1/DTD/svg11.dtd">
<svg version="1.1" id="Warstwa_1" xmlns="http://www.w3.org/2000/svg" xmlns:xlink="http://www.w3.org/1999/xlink" x="0px" y="0px"
	 width="85px" height="85px" viewBox="0 0 85 85" enable-background="new 0 0 85 85" xml:space="preserve">
<g>
	
		<polygon fill="none" stroke="#FFFFFF" stroke-width="2.0146" stroke-linecap="round" stroke-linejoin="round" stroke-miterlimit="10" points="
		30.243,8.541 53.289,8.541 42.376,27.656 19.126,27.656 	"/>
	
		<polyline fill="none" stroke="#FFFFFF" stroke-width="2.0146" stroke-linecap="round" stroke-linejoin="round" stroke-miterlimit="10" points="
		53.289,8.541 65.626,27.656 53.289,46.566 42.173,27.656 	"/>
	
		<polyline fill="none" stroke="#FFFFFF" stroke-width="2.0146" stroke-linecap="round" stroke-linejoin="round" stroke-miterlimit="10" points="
		59.713,36.72 69.973,36.72 59.542,56.371 36.611,56.371 43.189,46.566 	"/>
	
		<polyline fill="none" stroke="#FFFFFF" stroke-width="2.0146" stroke-linecap="round" stroke-linejoin="round" stroke-miterlimit="10" points="
		48.07,76.46 36.611,56.371 59.337,56.371 70.709,76.423 82.791,56.371 70.142,36.72 	"/>
	
		<line fill="none" stroke="#FFFFFF" stroke-width="2.0146" stroke-miterlimit="10" x1="47.803" y1="76.423" x2="70.709" y2="76.423"/>
	
		<line fill="none" stroke="#FFFFFF" stroke-width="2.0146" stroke-linecap="round" stroke-linejoin="round" stroke-miterlimit="10" x1="43.189" y1="46.566" x2="53.289" y2="46.566"/>
	
		<polyline fill="none" stroke="#FFFFFF" stroke-width="2.0146" stroke-linecap="round" stroke-linejoin="round" stroke-miterlimit="10" points="
		42.635,46.311 37.496,37.256 25.295,56.857 36.852,75.991 42.173,67.783 	"/>
	
		<polygon fill="none" stroke="#FFFFFF" stroke-width="2.0146" stroke-linecap="round" stroke-linejoin="round" stroke-miterlimit="10" points="
		13.907,37.009 37.496,37.009 25.751,56.124 2.791,56.124 	"/>
	
		<polyline fill="none" stroke="#FFFFFF" stroke-width="2.0146" stroke-linecap="round" stroke-linejoin="round" stroke-miterlimit="10" points="
		13.663,76.46 2.791,56.124 24.932,56.371 36.048,75.283 	"/>
	
		<line fill="none" stroke="#FFFFFF" stroke-width="2.0146" stroke-linecap="round" stroke-linejoin="round" stroke-miterlimit="10" x1="19.126" y1="27.656" x2="25.295" y2="35.789"/>
	
		<line fill="none" stroke="#FFFFFF" stroke-width="2.0146" stroke-linecap="round" stroke-linejoin="round" stroke-miterlimit="10" x1="13.663" y1="76.46" x2="36.048" y2="76.46"/>
</g>
</svg>
