<svg id="Warstwa_1" data-name="Warstwa 1" xmlns="http://www.w3.org/2000/svg" viewBox="0 0 270.18 141.46"><defs><style>.cls-1{fill:#2b3844;}</style></defs><path class="cls-1" d="M0,.27V95.15H20.22V.27Z"/><path class="cls-1" d="M121.88,40.93l19.41,33.89H102.4Zm54.47,54.22L121.88.27h-.07V.34L67.34,95.15Z"/><path class="cls-1" d="M226.37,60.66v.27L250,42.22V95.15h20.22V.27L226.37,35V34.7L182.55,0V95.15h20.22V42Z"/><path class="cls-1" d="M11.74,135.68v-.21a8.16,8.16,0,0,1-.5-3.13v-6.59a4.44,4.44,0,0,0-1.44-3.4,5.6,5.6,0,0,0-3.86-1.24,7,7,0,0,0-2.84.58,5.15,5.15,0,0,0-2,1.58,3.38,3.38,0,0,0-.76,2.07H2.74a2,2,0,0,1,.88-1.6,3.51,3.51,0,0,1,2.18-.66,3.09,3.09,0,0,1,2.25.76,2.75,2.75,0,0,1,.76,2V127H6.44a8,8,0,0,0-4.75,1.23A4.07,4.07,0,0,0,0,131.72a3.88,3.88,0,0,0,1.35,3A5,5,0,0,0,4.8,136a5.39,5.39,0,0,0,4.05-1.78,5.21,5.21,0,0,0,.34,1.51ZM3.2,133.17a2.23,2.23,0,0,1-.77-1.8q0-2.62,4.47-2.63H8.81v2.94a3.59,3.59,0,0,1-1.48,1.54,4.26,4.26,0,0,1-2.18.6A2.91,2.91,0,0,1,3.2,133.17Z"/><path class="cls-1" d="M16,133.92a4.85,4.85,0,0,0,4,2,5,5,0,0,0,4-1.7v1.23a3.82,3.82,0,0,1-1,2.83,3.7,3.7,0,0,1-2.76,1,4.74,4.74,0,0,1-3.83-1.95l-1.26,1.47a5.08,5.08,0,0,0,2.25,1.81,7.27,7.27,0,0,0,3,.66,6,6,0,0,0,4.4-1.6,5.82,5.82,0,0,0,1.63-4.37v-14H24.27L24.15,123a4.88,4.88,0,0,0-4.06-1.85,4.92,4.92,0,0,0-4.08,2,8.47,8.47,0,0,0-1.54,5.32A8.86,8.86,0,0,0,16,133.92Zm1.9-9.34a3.22,3.22,0,0,1,2.77-1.39,3.61,3.61,0,0,1,3.36,2v6.53a3.57,3.57,0,0,1-3.38,2.1,3.18,3.18,0,0,1-2.76-1.38,6.42,6.42,0,0,1-1-3.8A7,7,0,0,1,17.92,124.58Z"/><path class="cls-1" d="M41.63,133.18,40.14,132a5.58,5.58,0,0,1-1.56,1.4,4.28,4.28,0,0,1-2.19.53,3.85,3.85,0,0,1-3-1.3,5.16,5.16,0,0,1-1.23-3.42h9.64v-1A8,8,0,0,0,40.27,123,5.29,5.29,0,0,0,36,121.11a5.68,5.68,0,0,0-3.15,1,6.33,6.33,0,0,0-2.26,2.61,8.66,8.66,0,0,0-.81,3.81v.45A7.13,7.13,0,0,0,31.55,134,6.22,6.22,0,0,0,36.26,136a6,6,0,0,0,5.37-2.77Zm-3.25-9a4.68,4.68,0,0,1,1,2.88v.19H32.25a5.23,5.23,0,0,1,1.24-3A3.22,3.22,0,0,1,36,123.12,3,3,0,0,1,38.38,124.15Z"/><path class="cls-1" d="M44.94,121.38v14.3h2.43V125.49a4.32,4.32,0,0,1,1.4-1.67,3.5,3.5,0,0,1,2.07-.63,2.8,2.8,0,0,1,2.16.74,3.29,3.29,0,0,1,.7,2.28v9.47h2.43v-9.45q0-5.12-4.55-5.12a5.19,5.19,0,0,0-4.26,2.06l-.08-1.79Z"/><path class="cls-1" d="M62.77,132.61a6.16,6.16,0,0,1-1-3.8v-.47a6.34,6.34,0,0,1,1-3.88,3.39,3.39,0,0,1,2.87-1.34A3.27,3.27,0,0,1,68,124a3.39,3.39,0,0,1,1,2.28h2.3a5.19,5.19,0,0,0-1.69-3.74,5.71,5.71,0,0,0-4-1.44,6.17,6.17,0,0,0-3.37.9,5.71,5.71,0,0,0-2.19,2.53,8.6,8.6,0,0,0-.77,3.71v.41A7.82,7.82,0,0,0,61,134a6.26,6.26,0,0,0,7.36,1.28,5.54,5.54,0,0,0,2.08-1.77,4.56,4.56,0,0,0,.84-2.34H69a2.8,2.8,0,0,1-1.08,2,3.5,3.5,0,0,1-2.28.79A3.41,3.41,0,0,1,62.77,132.61Z"/><path class="cls-1" d="M74.28,121.38v16a2.18,2.18,0,0,1-.43,1.54,1.61,1.61,0,0,1-1.24.44,4.74,4.74,0,0,1-1.1-.1v1.94a4.42,4.42,0,0,0,1.48.24c2.48,0,3.73-1.38,3.73-4.13v-16Zm.11-2.81a1.32,1.32,0,0,0,1.06.4,1.38,1.38,0,0,0,1.08-.4,1.37,1.37,0,0,0,.37-1,1.41,1.41,0,0,0-.37-1,1.6,1.6,0,0,0-2.14,0,1.48,1.48,0,0,0-.36,1A1.4,1.4,0,0,0,74.39,118.57Z"/><path class="cls-1" d="M91.87,135.68v-.21a8,8,0,0,1-.5-3.13v-6.59a4.48,4.48,0,0,0-1.45-3.4,5.57,5.57,0,0,0-3.85-1.24,7,7,0,0,0-2.85.58,5.22,5.22,0,0,0-2,1.58,3.38,3.38,0,0,0-.76,2.07h2.45a2,2,0,0,1,.88-1.6,3.55,3.55,0,0,1,2.18-.66,3.09,3.09,0,0,1,2.25.76,2.75,2.75,0,0,1,.76,2V127H86.57a8,8,0,0,0-4.76,1.23,4.09,4.09,0,0,0-1.69,3.48,3.88,3.88,0,0,0,1.35,3,5,5,0,0,0,3.45,1.2,5.39,5.39,0,0,0,4-1.78,5.13,5.13,0,0,0,.35,1.51Zm-8.55-2.51a2.22,2.22,0,0,1-.76-1.8q0-2.62,4.47-2.63h1.9v2.94a3.53,3.53,0,0,1-1.48,1.54,4.26,4.26,0,0,1-2.17.6A2.93,2.93,0,0,1,83.32,133.17Z"/><path class="cls-1" d="M102.91,121.38v14.3h2.44V125.24a3.24,3.24,0,0,1,3.27-2q3,0,3,3.12v9.37h2.44v-9.49a3.34,3.34,0,0,1,1-2.19,3.24,3.24,0,0,1,2.25-.81,3,3,0,0,1,2.34.76,3.25,3.25,0,0,1,.7,2.29v9.44h2.43V126.1q-.08-5-4.76-5a5.38,5.38,0,0,0-2.69.64,5.26,5.26,0,0,0-1.84,1.66,4.08,4.08,0,0,0-4.07-2.3,5.25,5.25,0,0,0-4.22,1.85l-.07-1.58Z"/><path class="cls-1" d="M137.85,135.68v-.21a8,8,0,0,1-.5-3.13v-6.59a4.48,4.48,0,0,0-1.45-3.4,5.57,5.57,0,0,0-3.85-1.24,7,7,0,0,0-2.85.58,5.22,5.22,0,0,0-2,1.58,3.38,3.38,0,0,0-.76,2.07h2.45a2,2,0,0,1,.88-1.6,3.53,3.53,0,0,1,2.18-.66,3.09,3.09,0,0,1,2.25.76,2.75,2.75,0,0,1,.76,2V127h-2.36a8,8,0,0,0-4.76,1.23,4.09,4.09,0,0,0-1.69,3.48,3.88,3.88,0,0,0,1.35,3,5,5,0,0,0,3.45,1.2,5.39,5.39,0,0,0,4-1.78,5.13,5.13,0,0,0,.35,1.51Zm-8.55-2.51a2.22,2.22,0,0,1-.76-1.8q0-2.62,4.47-2.63h1.9v2.94a3.53,3.53,0,0,1-1.48,1.54,4.26,4.26,0,0,1-2.17.6A2.93,2.93,0,0,1,129.3,133.17Z"/><path class="cls-1" d="M148.13,121.3a2.37,2.37,0,0,0-1.08-.19,3.79,3.79,0,0,0-3.39,1.92l0-1.65h-2.37v14.3h2.44V125.53a3.19,3.19,0,0,1,3.24-2,7.51,7.51,0,0,1,1.2.09Z"/><path class="cls-1" d="M159.54,135.68h2.86l-6.18-8.33,5.53-6h-3l-4.43,4.7-1.3,1.58V115.37h-2.43v20.31h2.43v-5l1.53-1.6Z"/><path class="cls-1" d="M174.94,133.18,173.45,132a5.45,5.45,0,0,1-1.56,1.4,4.27,4.27,0,0,1-2.18.53,3.87,3.87,0,0,1-3-1.3,5.16,5.16,0,0,1-1.23-3.42h9.64v-1a8,8,0,0,0-1.54-5.26,5.29,5.29,0,0,0-4.31-1.84,5.68,5.68,0,0,0-3.15,1,6.33,6.33,0,0,0-2.26,2.61,8.66,8.66,0,0,0-.81,3.81v.45a7.13,7.13,0,0,0,1.82,5.11,6.21,6.21,0,0,0,4.7,1.91,6,6,0,0,0,5.37-2.77Zm-3.25-9a4.62,4.62,0,0,1,1,2.88v.19h-7.13a5.23,5.23,0,0,1,1.24-3,3.22,3.22,0,0,1,2.47-1.08A3,3,0,0,1,171.69,124.15Z"/><path class="cls-1" d="M179.15,117.91v3.47h-2.59v1.89h2.59v8.87A4.28,4.28,0,0,0,180,135a3,3,0,0,0,2.46,1,6.93,6.93,0,0,0,1.87-.27v-2a5.68,5.68,0,0,1-1.16.16,1.48,1.48,0,0,1-1.21-.43,2,2,0,0,1-.36-1.29v-8.88h2.66v-1.89h-2.66v-3.47Z"/><path class="cls-1" d="M189.57,121.38h-2.44v14.3h2.44Zm-2.27-2.81a1.35,1.35,0,0,0,1.07.4,1.31,1.31,0,0,0,1.44-1.39,1.44,1.44,0,0,0-.36-1,1.37,1.37,0,0,0-1.08-.41,1.32,1.32,0,0,0-1.07.41,1.45,1.45,0,0,0-.37,1A1.41,1.41,0,0,0,187.3,118.57Z"/><path class="cls-1" d="M193.53,121.38v14.3H196V125.49a4.21,4.21,0,0,1,1.39-1.67,3.53,3.53,0,0,1,2.08-.63,2.79,2.79,0,0,1,2.15.74,3.29,3.29,0,0,1,.7,2.28v9.47h2.43v-9.45q0-5.12-4.55-5.12a5.19,5.19,0,0,0-4.26,2.06l-.08-1.79Z"/><path class="cls-1" d="M209.48,133.92a4.86,4.86,0,0,0,4.05,2,5,5,0,0,0,4-1.7v1.23a3.86,3.86,0,0,1-1,2.83,3.71,3.71,0,0,1-2.77,1,4.76,4.76,0,0,1-3.83-1.95l-1.26,1.47a5.19,5.19,0,0,0,2.25,1.81,7.3,7.3,0,0,0,3,.66,6,6,0,0,0,4.4-1.6,5.82,5.82,0,0,0,1.64-4.37v-14h-2.22l-.12,1.58a5.28,5.28,0,0,0-8.14.13,8.41,8.41,0,0,0-1.54,5.32A8.86,8.86,0,0,0,209.48,133.92Zm1.9-9.34a3.24,3.24,0,0,1,2.78-1.39,3.59,3.59,0,0,1,3.35,2v6.53a3.56,3.56,0,0,1-3.38,2.1,3.2,3.2,0,0,1-2.76-1.38,6.42,6.42,0,0,1-1-3.8A7,7,0,0,1,211.38,124.58Z"/><path class="cls-1" d="M223.15,128.57a7.79,7.79,0,0,0,1.79,5.35,6,6,0,0,0,4.69,2A6.26,6.26,0,0,0,233,135a6.09,6.09,0,0,0,2.28-2.58,8.59,8.59,0,0,0,.79-3.75v-.17a7.86,7.86,0,0,0-1.79-5.39,6,6,0,0,0-4.71-2,6.27,6.27,0,0,0-3.34.91,6.19,6.19,0,0,0-2.29,2.6,8.4,8.4,0,0,0-.82,3.78Zm3.55-4a3.47,3.47,0,0,1,2.9-1.44,3.55,3.55,0,0,1,3,1.46,6.16,6.16,0,0,1,1.11,3.82,6.79,6.79,0,0,1-1.09,4.09,3.72,3.72,0,0,1-5.89,0,6.17,6.17,0,0,1-1.1-3.82A6.66,6.66,0,0,1,226.7,124.56Z"/><path class="cls-1" d="M248.1,121.38h-2l-3.31,10.71L240,121.38H237.6l4.13,14.3h2l3.36-10.84,3.46,10.84h2l4.15-14.3h-2.44l-2.73,10.93Z"/><path class="cls-1" d="M270.18,135.68v-.21a8.16,8.16,0,0,1-.5-3.13v-6.59a4.44,4.44,0,0,0-1.44-3.4,5.6,5.6,0,0,0-3.86-1.24,7,7,0,0,0-2.84.58,5.15,5.15,0,0,0-2.05,1.58,3.38,3.38,0,0,0-.76,2.07h2.45a2,2,0,0,1,.88-1.6,3.51,3.51,0,0,1,2.18-.66,3.09,3.09,0,0,1,2.25.76,2.75,2.75,0,0,1,.76,2V127h-2.37a8,8,0,0,0-4.75,1.23,4.07,4.07,0,0,0-1.69,3.48,3.88,3.88,0,0,0,1.35,3,5,5,0,0,0,3.45,1.2,5.39,5.39,0,0,0,4.05-1.78,5.21,5.21,0,0,0,.34,1.51Zm-8.54-2.51a2.23,2.23,0,0,1-.77-1.8q0-2.62,4.47-2.63h1.91v2.94a3.56,3.56,0,0,1-1.49,1.54,4.19,4.19,0,0,1-2.16.6A2.91,2.91,0,0,1,261.64,133.17Z"/></svg>